<svg viewBox="0 0 512 512" width="512" height="512" fill="none" xmlns="http://www.w3.org/2000/svg">
  <defs>
    <!-- Cyan Refraction Gradient for Play Triangle -->
    <linearGradient id="eliPlayGrad" x1="0%" y1="50%" x2="100%" y2="50%">
      <stop offset="0%" stop-color="#00b4d8" />
      <stop offset="50%" stop-color="#00d2ff" />
      <stop offset="100%" stop-color="#67e8f9" />
    </linearGradient>

    <!-- Star Accent Gradient -->
    <linearGradient id="eliStarGrad" x1="50%" y1="0%" x2="50%" y2="100%">
      <stop offset="0%" stop-color="#ffffff" />
      <stop offset="45%" stop-color="#ffffff" />
      <stop offset="80%" stop-color="#7dd3fc" />
      <stop offset="100%" stop-color="#00d2ff" />
    </linearGradient>
  </defs>

  <!-- 1. Deep Slate Canvas with Precision Squircle (rx=120) -->
  <rect width="512" height="512" rx="120" fill="#090b10" />
  <rect x="1" y="1" width="510" height="510" rx="119" stroke="rgba(255, 255, 255, 0.08)" stroke-width="2" />

  <!-- 2. The Architectural 'É' Spine and Arms (Solid Optical White #FFFFFF) -->
  <path
    d="M 144 160
       L 344 160
       C 346.2 160 348 161.8 348 164
       L 348 200
       C 348 202.2 346.2 204 344 204
       L 180 204
       L 180 336
       L 344 336
       C 346.2 336 348 337.8 348 340
       L 348 376
       C 348 378.2 346.2 380 344 380
       L 144 380
       C 139.6 380 136 376.4 136 372
       L 136 168
       C 136 163.6 139.6 160 144 160 Z"
    fill="#FFFFFF"
  />

  <!-- 3. Dynamic Play Wedge / Triangle (Luminous Cyan #00d2ff) -->
  <path
    d="M 212 230
       C 216 226 222 229 226 232
       L 346 266
       C 352 268 352 272 346 274
       L 226 308
       C 222 311 216 314 212 310
       C 208 307 208 301 208 296
       L 208 244
       C 208 239 208 233 212 230 Z"
    fill="url(#eliPlayGrad)"
  />

  <!-- 4. Acute Accent: Elegant Razor-Thin 4-Point AI Discovery Diamond Star -->
  <path
    d="M 270 70
       Q 270 106 296 106
       Q 270 106 270 142
       Q 270 106 244 106
       Q 270 106 270 70 Z"
    fill="url(#eliStarGrad)"
  />
  <circle cx="270" cy="106" r="3.5" fill="#FFFFFF" />
</svg>
